<svg xmlns="http://www.w3.org/2000/svg" version="1.1" xmlns:xlink="http://www.w3.org/1999/xlink" xmlns:svgjs="http://svgjs.dev/svgjs" width="1000" height="242" viewBox="0 0 1000 242"><g transform="matrix(1,0,0,1,-0.606053178040213,-0.5143185698792934)"><svg viewBox="0 0 396 96" data-background-color="#ffffff" preserveAspectRatio="xMidYMid meet" height="242" width="1000" xmlns="http://www.w3.org/2000/svg" xmlns:xlink="http://www.w3.org/1999/xlink"><g id="tight-bounds" transform="matrix(1,0,0,1,0.23999739779389984,0.2040276375043959)"><svg viewBox="0 0 395.52 95.59194516122118" height="95.59194516122118" width="395.52"><g><svg viewBox="0 0 571.0440589635473 138.0137853182761" height="95.59194516122118" width="395.52"><g transform="matrix(1,0,0,1,175.52405896354736,2.430054589540333)"><svg viewBox="0 0 395.52 133.15367613919543" height="133.15367613919543" width="395.52"><g id="textblocktransform"><svg viewBox="0 0 395.52 133.15367613919543" height="133.15367613919543" width="395.52" id="textblock"><g><svg viewBox="0 0 395.52 81.9837147102526" height="81.9837147102526" width="395.52"><g transform="matrix(1,0,0,1,0,0)"><svg width="395.52" viewBox="-0.05000000447034836 -47 336.4700012207031 69.75" height="81.9837147102526" data-palette-color="#001f3f"><path d="M44.35-41.45Q45.75-41.25 46.28-40.6 46.8-39.95 46.8-38.9L46.8-38.9Q46.8-35.45 43.1-35.7L43.1-35.7 41.35-35.85Q38.4-36.1 35.48-36.25 32.55-36.4 29.35-36.4L29.35-36.4 27.1-36.4Q26.5-29 25.85-22.9L25.85-22.9 34.45-23.05Q36.3-23.05 36.93-22.4 37.55-21.75 37.55-20.65L37.55-20.65Q37.55-18.95 36.55-17.98 35.55-17 33.7-17L33.7-17 25.15-17 24.85-14.85Q23.8-6.6 20.38-3.1 16.95 0.4 10.95 0.4L10.95 0.4Q7.55 0.4 4.7-1.07 1.85-2.55 0.5-4.65L0.5-4.65Q-0.05-5.5-0.05-6.7L-0.05-6.7Q-0.05-7.9 0.53-8.8 1.1-9.7 1.95-9.7L1.95-9.7Q2.55-9.7 3.13-9.3 3.7-8.9 4.6-7.75L4.6-7.75Q7-4.6 10.55-4.6L10.55-4.6Q13.4-4.6 15.33-6.93 17.25-9.25 17.8-14.25L17.8-14.25 18.1-17 15.7-17Q14.55-17 13.73-17.65 12.9-18.3 12.9-19.5L12.9-19.5Q12.9-21.05 13.7-21.88 14.5-22.7 16.05-22.7L16.05-22.7Q17.45-22.7 18.8-22.75L18.8-22.75Q19.4-28.25 20.1-36.1L20.1-36.1Q14.7-35.6 12.5-34.35 10.3-33.1 10.3-30.65L10.3-30.65Q10.3-28.95 11.3-27.4L11.3-27.4Q11.6-26.95 11.6-26.5L11.6-26.5Q11.6-25.6 10.6-24.93 9.6-24.25 8.35-24.25L8.35-24.25Q7-24.25 6.05-25.05L6.05-25.05Q5.45-25.55 4.9-27.1 4.35-28.65 4.35-30.55L4.35-30.55Q4.35-36.75 10.73-39.55 17.1-42.35 29.35-42.35L29.35-42.35Q37.85-42.35 44.35-41.45L44.35-41.45ZM41.55 0.25Q39.65 0.25 38.87-1.75 38.1-3.75 38.1-8.15L38.1-8.15Q38.1-14.65 39.95-20.5L39.95-20.5Q40.4-21.95 41.42-22.63 42.45-23.3 44.3-23.3L44.3-23.3Q45.3-23.3 45.7-23.05 46.1-22.8 46.1-22.1L46.1-22.1Q46.1-21.3 45.35-18.5L45.35-18.5Q44.85-16.5 44.55-15 44.25-13.5 44.05-11.3L44.05-11.3Q45.7-15.6 47.75-18.3 49.8-21 51.77-22.15 53.75-23.3 55.4-23.3L55.4-23.3Q58.65-23.3 58.65-20.05L58.65-20.05Q58.65-19.4 58.2-16.9L58.2-16.9Q57.8-14.9 57.8-14.4L57.8-14.4Q57.8-12.65 59.05-12.65L59.05-12.65Q60.45-12.65 62.65-14.85L62.65-14.85Q63.3-15.5 64-15.5L64-15.5Q64.65-15.5 65.02-14.93 65.4-14.35 65.4-13.4L65.4-13.4Q65.4-11.55 64.4-10.5L64.4-10.5Q63-9.05 61.12-8.03 59.25-7 57.15-7L57.15-7Q54.5-7 53.12-8.35 51.75-9.7 51.75-12L51.75-12Q51.75-12.75 51.9-13.5L51.9-13.5Q52-14.5 52-14.85L52-14.85Q52-15.65 51.45-15.65L51.45-15.65Q50.7-15.65 49.47-13.98 48.25-12.3 47.05-9.55 45.85-6.8 45.1-3.75L45.1-3.75Q44.55-1.4 43.82-0.58 43.1 0.25 41.55 0.25L41.55 0.25ZM67.3-26.6Q65.2-26.6 64.15-27.58 63.1-28.55 63.1-30.3L63.1-30.3Q63.1-32.05 64.47-33.23 65.84-34.4 67.9-34.4L67.9-34.4Q69.75-34.4 70.9-33.5 72.05-32.6 72.05-30.95L72.05-30.95Q72.05-28.95 70.75-27.78 69.45-26.6 67.3-26.6L67.3-26.6ZM66.9 0.25Q63.65 0.25 62.17-2.05 60.7-4.35 60.7-8.15L60.7-8.15Q60.7-10.4 61.27-13.93 61.85-17.45 62.75-20.5L62.75-20.5Q63.2-22.1 63.95-22.7 64.7-23.3 66.34-23.3L66.34-23.3Q68.9-23.3 68.9-21.6L68.9-21.6Q68.9-20.35 67.95-15.8L67.95-15.8Q66.75-10.3 66.75-8.35L66.75-8.35Q66.75-6.85 67.15-6.05 67.55-5.25 68.5-5.25L68.5-5.25Q69.4-5.25 70.75-6.5 72.09-7.75 74.34-10.45L74.34-10.45Q74.95-11.15 75.7-11.15L75.7-11.15Q76.34-11.15 76.72-10.55 77.09-9.95 77.09-8.9L77.09-8.9Q77.09-6.9 76.15-5.8L76.15-5.8Q71.2 0.25 66.9 0.25L66.9 0.25ZM101.44-11.15Q102.09-11.15 102.47-10.55 102.84-9.95 102.84-8.9L102.84-8.9Q102.84-6.9 101.89-5.8L101.89-5.8Q99.84-3.3 97.39-1.53 94.94 0.25 92.54 0.25L92.54 0.25Q88.74 0.25 86.74-4.2L86.74-4.2Q84.64-1.55 83.07-0.65 81.49 0.25 79.39 0.25L79.39 0.25Q76.34 0.25 74.37-2.02 72.39-4.3 72.39-7.95L72.39-7.95Q72.39-11.95 74.09-15.38 75.79-18.8 78.77-20.98 81.74-23.15 85.44-23.55L85.44-23.55Q86.39-33.25 89.07-40.13 91.74-47 96.09-47L96.09-47Q98.24-47 99.67-45.05 101.09-43.1 101.09-39.15L101.09-39.15Q101.09-33.55 98.34-26.05 95.59-18.55 90.99-10.65L90.99-10.65Q91.19-7.75 91.87-6.5 92.54-5.25 93.59-5.25L93.59-5.25Q94.94-5.25 96.34-6.45 97.74-7.65 100.09-10.45L100.09-10.45Q100.69-11.15 101.44-11.15L101.44-11.15ZM95.54-42.1Q94.59-42.1 93.64-38.73 92.69-35.35 92.02-29.9 91.34-24.45 91.04-18.5L91.04-18.5Q96.64-30.7 96.64-38.1L96.64-38.1Q96.64-40 96.32-41.05 95.99-42.1 95.54-42.1L95.54-42.1ZM81.14-4.8Q82.09-4.8 83.04-5.58 83.99-6.35 85.44-8.45L85.44-8.45Q84.94-11.15 84.94-14.5L84.94-14.5Q84.94-15.7 85.04-18.4L85.04-18.4Q82.29-17.55 80.47-14.73 78.64-11.9 78.64-8.45L78.64-8.45Q78.64-4.8 81.14-4.8L81.14-4.8ZM104.44 0.25Q101.34 0.25 99.49-2 97.64-4.25 97.64-7.9L97.64-7.9Q97.64-11.9 99.49-15.48 101.34-19.05 104.42-21.23 107.49-23.4 110.94-23.4L110.94-23.4Q112.04-23.4 112.42-22.98 112.79-22.55 113.04-21.45L113.04-21.45Q114.09-21.65 115.24-21.65L115.24-21.65Q117.69-21.65 117.69-19.9L117.69-19.9Q117.69-18.85 116.94-14.9L116.94-14.9Q115.79-9.15 115.79-6.9L115.79-6.9Q115.79-6.15 116.17-5.7 116.54-5.25 117.14-5.25L117.14-5.25Q118.09-5.25 119.44-6.48 120.79-7.7 123.09-10.45L123.09-10.45Q123.69-11.15 124.44-11.15L124.44-11.15Q125.09-11.15 125.47-10.55 125.84-9.95 125.84-8.9L125.84-8.9Q125.84-6.9 124.89-5.8L124.89-5.8Q122.84-3.25 120.54-1.5 118.24 0.25 116.09 0.25L116.09 0.25Q114.44 0.25 113.07-0.88 111.69-2 110.99-3.95L110.99-3.95Q108.39 0.25 104.44 0.25L104.44 0.25ZM106.24-4.8Q107.34-4.8 108.34-6.1 109.34-7.4 109.79-9.55L109.79-9.55 111.64-18.75Q109.54-18.7 107.77-17.18 105.99-15.65 104.94-13.15 103.89-10.65 103.89-7.85L103.89-7.85Q103.89-6.3 104.52-5.55 105.14-4.8 106.24-4.8L106.24-4.8ZM147.39-11.05Q148.04-11.05 148.41-10.43 148.79-9.8 148.79-8.85L148.79-8.85Q148.79-7.7 148.44-7.05 148.09-6.4 147.34-5.9L147.34-5.9 137.74 0.55Q135.84 10.9 132.76 16.82 129.69 22.75 124.94 22.75L124.94 22.75Q122.39 22.75 120.79 21.18 119.19 19.6 119.19 17.05L119.19 17.05Q119.19 14.7 120.26 12.25 121.34 9.8 124.26 6.63 127.19 3.45 132.54-0.65L132.54-0.65 132.69-1.8Q133.04-3.65 133.49-7.1L133.49-7.1Q132.49-3.5 130.69-1.63 128.89 0.25 126.89 0.25L126.89 0.25Q124.64 0.25 123.21-1.83 121.79-3.9 121.79-7L121.79-7Q121.79-10.75 122.29-13.88 122.79-17 123.94-20.5L123.94-20.5Q124.44-22 125.34-22.65 126.24-23.3 128.19-23.3L128.19-23.3Q129.29-23.3 129.71-22.95 130.14-22.6 130.14-21.9L130.14-21.9Q130.14-21.5 129.59-19.2L129.59-19.2Q129.09-17.35 128.79-15.85L128.79-15.85Q128.39-13.8 128.09-11.93 127.79-10.05 127.79-8.85L127.79-8.85Q127.79-6.95 128.84-6.95L128.84-6.95Q129.59-6.95 130.71-8.45 131.84-9.95 133.11-13 134.39-16.05 135.59-20.5L135.59-20.5Q135.99-22 136.81-22.65 137.64-23.3 139.29-23.3L139.29-23.3Q140.44-23.3 140.89-23 141.34-22.7 141.34-22L141.34-22Q141.34-20.75 140.04-13.4L140.04-13.4 138.74-5.35Q142.59-8.25 146.24-10.65L146.24-10.65Q146.89-11.05 147.39-11.05L147.39-11.05ZM125.49 17.9Q126.74 17.9 128.29 15 129.84 12.1 131.39 5.35L131.39 5.35Q127.54 8.6 125.81 11.28 124.09 13.95 124.09 15.95L124.09 15.95Q124.09 16.8 124.41 17.35 124.74 17.9 125.49 17.9L125.49 17.9ZM168.18 0.25Q166.33 0.25 165.53-0.58 164.73-1.4 164.73-3.7L164.73-3.7Q164.73-5.25 165.06-7.68 165.38-10.1 166.13-14.35L166.13-14.35Q167.43-22.2 168.18-27.95L168.18-27.95Q168.63-31.55 168.63-33.95L168.63-33.95Q168.63-36.2 166.98-36.2L166.98-36.2Q165.68-36.2 163.86-34.88 162.03-33.55 159.83-30.65L159.83-30.65Q159.13-29.7 158.28-29.7L158.28-29.7Q157.58-29.7 157.06-30.38 156.53-31.05 156.53-31.9L156.53-31.9Q156.53-32.7 156.86-33.52 157.18-34.35 157.93-35.4L157.93-35.4Q160.33-38.75 163.28-40.58 166.23-42.4 169.18-42.4L169.18-42.4Q171.93-42.4 173.41-40.65 174.88-38.9 174.88-35.55L174.88-35.55Q174.88-34.2 174.63-32.38 174.38-30.55 174.18-29.4 173.98-28.25 173.88-27.8L173.88-27.8Q176.73-35.95 180.28-39.18 183.83-42.4 188.08-42.4L188.08-42.4Q191.33-42.4 193.21-40.1 195.08-37.8 195.08-33.6L195.08-33.6Q195.08-31.95 194.63-29.5L194.63-29.5Q197.13-36.4 200.48-39.4 203.83-42.4 208.18-42.4L208.18-42.4Q211.68-42.4 213.56-40.15 215.43-37.9 215.43-33.85L215.43-33.85Q215.43-31.65 214.78-28.5L214.78-28.5 211.73-14.2Q211.23-11.7 211.23-9.9L211.23-9.9Q211.23-7.8 212.21-6.75 213.18-5.7 214.93-5.7L214.93-5.7Q216.58-5.7 218.16-6.8 219.73-7.9 221.88-10.45L221.88-10.45Q222.48-11.15 223.23-11.15L223.23-11.15Q223.88-11.15 224.26-10.55 224.63-9.95 224.63-8.9L224.63-8.9Q224.63-6.95 223.68-5.8L223.68-5.8Q221.08-2.65 218.53-1.2 215.98 0.25 213.18 0.25L213.18 0.25Q208.93 0.25 206.53-2.27 204.13-4.8 204.13-9.05L204.13-9.05Q204.13-12 205.33-17.6L205.33-17.6 207.33-26.75Q207.43-27.2 207.68-28.35 207.93-29.5 208.08-30.53 208.23-31.55 208.23-32.55L208.23-32.55Q208.23-34.3 207.56-35.18 206.88-36.05 205.63-36.05L205.63-36.05Q203.28-36.05 200.71-33.02 198.13-30 195.81-23 193.48-16 192.03-4.8L192.03-4.8Q191.68-1.8 190.81-0.78 189.93 0.25 187.98 0.25L187.98 0.25Q186.28 0.25 185.51-0.55 184.73-1.35 184.73-3.55L184.73-3.55Q184.73-5.6 185.28-8.93 185.83-12.25 186.68-16.75L186.68-16.75Q188.98-28.85 188.98-32.35L188.98-32.35Q188.98-34.25 188.26-35.15 187.53-36.05 186.08-36.05L186.08-36.05Q183.63-36.05 181.03-33.27 178.43-30.5 175.96-23.43 173.48-16.35 171.83-4.3L171.83-4.3Q171.48-1.75 170.81-0.75 170.13 0.25 168.18 0.25L168.18 0.25ZM226.73 0.25Q223.63 0.25 221.78-2 219.93-4.25 219.93-7.9L219.93-7.9Q219.93-11.9 221.78-15.48 223.63-19.05 226.71-21.23 229.78-23.4 233.23-23.4L233.23-23.4Q234.33-23.4 234.71-22.98 235.08-22.55 235.33-21.45L235.33-21.45Q236.38-21.65 237.53-21.65L237.53-21.65Q239.98-21.65 239.98-19.9L239.98-19.9Q239.98-18.85 239.23-14.9L239.23-14.9Q238.08-9.15 238.08-6.9L238.08-6.9Q238.08-6.15 238.46-5.7 238.83-5.25 239.43-5.25L239.43-5.25Q240.38-5.25 241.73-6.48 243.08-7.7 245.38-10.45L245.38-10.45Q245.98-11.15 246.73-11.15L246.73-11.15Q247.38-11.15 247.76-10.55 248.13-9.95 248.13-8.9L248.13-8.9Q248.13-6.9 247.18-5.8L247.18-5.8Q245.13-3.25 242.83-1.5 240.53 0.25 238.38 0.25L238.38 0.25Q236.73 0.25 235.36-0.88 233.98-2 233.28-3.95L233.28-3.95Q230.68 0.25 226.73 0.25L226.73 0.25ZM228.53-4.8Q229.63-4.8 230.63-6.1 231.63-7.4 232.08-9.55L232.08-9.55 233.93-18.75Q231.83-18.7 230.06-17.18 228.28-15.65 227.23-13.15 226.18-10.65 226.18-7.85L226.18-7.85Q226.18-6.3 226.81-5.55 227.43-4.8 228.53-4.8L228.53-4.8ZM247.63 0.25Q245.73 0.25 244.95-1.75 244.18-3.75 244.18-8.15L244.18-8.15Q244.18-14.65 246.03-20.5L246.03-20.5Q246.48-21.95 247.5-22.63 248.53-23.3 250.38-23.3L250.38-23.3Q251.38-23.3 251.78-23.05 252.18-22.8 252.18-22.1L252.18-22.1Q252.18-21.3 251.43-18.5L251.43-18.5Q250.93-16.5 250.63-15 250.33-13.5 250.13-11.3L250.13-11.3Q251.78-15.6 253.83-18.3 255.88-21 257.85-22.15 259.83-23.3 261.48-23.3L261.48-23.3Q264.73-23.3 264.73-20.05L264.73-20.05Q264.73-19.4 264.28-16.9L264.28-16.9Q263.88-14.9 263.88-14.4L263.88-14.4Q263.88-12.65 265.13-12.65L265.13-12.65Q266.53-12.65 268.73-14.85L268.73-14.85Q269.38-15.5 270.08-15.5L270.08-15.5Q270.73-15.5 271.1-14.93 271.48-14.35 271.48-13.4L271.48-13.4Q271.48-11.55 270.48-10.5L270.48-10.5Q269.08-9.05 267.2-8.03 265.33-7 263.23-7L263.23-7Q260.58-7 259.2-8.35 257.83-9.7 257.83-12L257.83-12Q257.83-12.75 257.98-13.5L257.98-13.5Q258.08-14.5 258.08-14.85L258.08-14.85Q258.08-15.65 257.53-15.65L257.53-15.65Q256.78-15.65 255.55-13.98 254.33-12.3 253.13-9.55 251.93-6.8 251.18-3.75L251.18-3.75Q250.63-1.4 249.9-0.58 249.18 0.25 247.63 0.25L247.63 0.25ZM295.73-11.15Q296.38-11.15 296.75-10.55 297.13-9.95 297.13-8.9L297.13-8.9Q297.13-6.9 296.18-5.8L296.18-5.8Q293.93-3.05 291.63-1.4 289.32 0.25 286.18 0.25L286.18 0.25Q282.32 0.25 279.98-1.95 277.63-4.15 277.63-7.8L277.63-7.8Q277.63-9.75 279.63-10.6L279.63-10.6Q281.82-11.55 282.78-12.63 283.73-13.7 283.73-15.25L283.73-15.25Q283.73-16.15 283.35-16.6 282.98-17.05 282.43-17.05L282.43-17.05Q281.07-17.05 279.45-15.1 277.82-13.15 276.43-10.08 275.03-7 274.23-3.75L274.23-3.75Q273.68-1.4 272.95-0.58 272.23 0.25 270.68 0.25L270.68 0.25Q269.13 0.25 268.4-0.88 267.68-2 267.43-4.35 267.18-6.7 267.18-11.25L267.18-11.25Q267.18-18.95 268.75-27.3 270.32-35.65 273.4-41.33 276.48-47 280.78-47L280.78-47Q283.07-47 284.5-45.03 285.93-43.05 285.93-39.9L285.93-39.9Q285.93-34.85 282.98-29.43 280.03-24 273.38-16.75L273.38-16.75Q273.23-14.15 273.23-11.4L273.23-11.4Q275.63-17.65 278.73-20.48 281.82-23.3 284.53-23.3L284.53-23.3Q287.03-23.3 288.55-21.6 290.07-19.9 290.07-17.4L290.07-17.4Q290.07-14.65 288.68-12.35 287.28-10.05 283.88-8.25L283.88-8.25Q284.07-6.9 285.1-6.08 286.13-5.25 287.57-5.25L287.57-5.25Q289.13-5.25 290.57-6.45 292.03-7.65 294.38-10.45L294.38-10.45Q294.98-11.15 295.73-11.15L295.73-11.15ZM279.73-42.05Q278.82-42.05 277.73-39.48 276.63-36.9 275.6-32.52 274.57-28.15 273.93-23L273.93-23Q277.03-26.65 279.05-30.95 281.07-35.25 281.07-38.75L281.07-38.75Q281.07-40.35 280.73-41.2 280.38-42.05 279.73-42.05L279.73-42.05ZM315.37-11.15Q316.02-11.15 316.4-10.55 316.77-9.95 316.77-8.9L316.77-8.9Q316.77-6.9 315.82-5.8L315.82-5.8Q313.97-3.55 310.6-1.65 307.22 0.25 303.37 0.25L303.37 0.25Q298.12 0.25 295.22-2.6 292.32-5.45 292.32-10.4L292.32-10.4Q292.32-13.85 293.77-16.82 295.22-19.8 297.8-21.55 300.37-23.3 303.62-23.3L303.62-23.3Q306.52-23.3 308.27-21.58 310.02-19.85 310.02-16.9L310.02-16.9Q310.02-13.45 307.55-10.98 305.07-8.5 299.17-7.05L299.17-7.05Q300.42-4.75 303.92-4.75L303.92-4.75Q306.17-4.75 309.05-6.33 311.92-7.9 314.02-10.45L314.02-10.45Q314.62-11.15 315.37-11.15L315.37-11.15ZM302.77-18.4Q300.92-18.4 299.65-16.25 298.37-14.1 298.37-11.05L298.37-11.05 298.37-10.95Q301.32-11.65 303.02-13.05 304.72-14.45 304.72-16.3L304.72-16.3Q304.72-17.25 304.2-17.82 303.67-18.4 302.77-18.4L302.77-18.4ZM335.02-11.15Q335.67-11.15 336.05-10.55 336.42-9.95 336.42-8.9L336.42-8.9Q336.42-6.9 335.47-5.8L335.47-5.8Q333.32-3.15 330.77-1.45 328.22 0.25 324.92 0.25L324.92 0.25Q314.72 0.25 314.72-14.1L314.72-14.1Q314.72-16.3 314.87-18.55L314.87-18.55 312.92-18.55Q311.42-18.55 310.89-19.1 310.37-19.65 310.37-20.85L310.37-20.85Q310.37-23.65 312.62-23.65L312.62-23.65 315.47-23.65Q316.32-29.15 318.07-33.7 319.82-38.25 322.3-40.95 324.77-43.65 327.62-43.65L327.62-43.65Q329.72-43.65 330.92-41.8 332.12-39.95 332.12-37.15L332.12-37.15Q332.12-29.4 325.62-23.65L325.62-23.65 331.22-23.65Q332.02-23.65 332.37-23.3 332.72-22.95 332.72-22L332.72-22Q332.72-18.55 327.07-18.55L327.07-18.55 320.97-18.55Q320.87-16.05 320.87-14.65L320.87-14.65Q320.87-9.45 322.09-7.35 323.32-5.25 325.97-5.25L325.97-5.25Q328.12-5.25 329.77-6.55 331.42-7.85 333.67-10.45L333.67-10.45Q334.27-11.15 335.02-11.15L335.02-11.15ZM326.27-38.85Q325.52-38.85 324.59-36.98 323.67-35.1 322.84-31.78 322.02-28.45 321.47-24.4L321.47-24.4Q324.42-26.95 325.89-30.13 327.37-33.3 327.37-35.9L327.37-35.9Q327.37-38.85 326.27-38.85L326.27-38.85Z" opacity="1" transform="matrix(1,0,0,1,0,0)" fill="#001f3f" class="wordmark-text-0" data-fill-palette-color="primary" id="text-0"></path></svg></g></svg></g><g transform="matrix(1,0,0,1,0,101.33810214419019)"><svg viewBox="0 0 395.52 31.815573995005238" height="31.815573995005238" width="395.52"><g transform="matrix(1,0,0,1,0,0)"><svg width="395.52" viewBox="2.809999942779541 -38.09000015258789 606.0499877929688 48.76000213623047" height="31.815573995005238" data-palette-color="#001f3f"><path d="M14.79 0.51L14.79 0.51Q11.55 0.51 8.54-0.44 5.54-1.39 2.81-3.37L2.81-3.37 2.81-10.96 6.54-10.96 7.35-5.37Q8.94-4.39 10.79-3.86 12.65-3.32 14.79-3.32L14.79-3.32Q17.24-3.32 18.93-4.06 20.63-4.81 21.53-6.13 22.44-7.45 22.44-9.2L22.44-9.2Q22.44-10.84 21.66-12.08 20.87-13.33 19.08-14.27 17.29-15.21 14.18-15.92L14.18-15.92Q10.52-16.77 8-18.2 5.47-19.63 4.16-21.67 2.86-23.71 2.86-26.34L2.86-26.34Q2.86-29.13 4.33-31.32 5.81-33.52 8.45-34.79 11.08-36.06 14.6-36.06L14.6-36.06Q18.33-36.06 21.2-34.92 24.07-33.79 25.93-32.18L25.93-32.18 25.93-25.07 22.19-25.07 21.39-30.15Q20.29-31.03 18.65-31.62 17.02-32.2 14.6-32.2L14.6-32.2Q12.55-32.2 10.99-31.48 9.42-30.76 8.54-29.47 7.67-28.17 7.67-26.42L7.67-26.42Q7.67-24.88 8.46-23.73 9.25-22.58 11.05-21.72 12.84-20.85 15.84-20.09L15.84-20.09Q21.46-18.7 24.35-15.98 27.25-13.26 27.25-9.25L27.25-9.25Q27.25-6.4 25.71-4.19 24.17-1.98 21.37-0.73 18.58 0.51 14.79 0.51ZM43.41 0L30.64 0 30.64-3.08 34.62-3.76 34.62-34.3 30.64-34.99 30.64-38.09 39.43-38.09 39.43-22.9Q40.79-24.8 42.77-25.85 44.75-26.9 47.17-26.9L47.17-26.9Q51.41-26.9 53.76-24.37 56.1-21.83 56.1-16.55L56.1-16.55 56.1-3.76 60.08-3.08 60.08 0 47.31 0 47.31-3.08 51.29-3.76 51.29-16.6Q51.29-19.87 49.89-21.44 48.48-23 45.7-23L45.7-23Q43.72-23 42.1-22.06 40.48-21.12 39.43-19.51L39.43-19.51 39.43-3.76 43.41-3.08 43.41 0ZM74.92 0.51L74.92 0.51Q71.26 0.51 68.61-1.21 65.96-2.93 64.52-5.97 63.08-9.01 63.08-12.92L63.08-12.92 63.08-13.45Q63.08-17.36 64.52-20.4 65.96-23.44 68.61-25.17 71.26-26.9 74.87-26.9L74.87-26.9Q78.54-26.9 81.18-25.17 83.83-23.44 85.27-20.41 86.71-17.38 86.71-13.45L86.71-13.45 86.71-12.92Q86.71-8.98 85.27-5.94 83.83-2.91 81.2-1.2 78.56 0.51 74.92 0.51ZM74.92-3.25L74.92-3.25Q77.22-3.25 78.77-4.5 80.32-5.76 81.11-7.95 81.9-10.13 81.9-12.92L81.9-12.92 81.9-13.45Q81.9-16.24 81.11-18.42 80.32-20.61 78.75-21.86 77.19-23.12 74.87-23.12L74.87-23.12Q72.58-23.12 71.02-21.86 69.45-20.61 68.67-18.42 67.89-16.24 67.89-13.45L67.89-13.45 67.89-12.92Q67.89-10.13 68.67-7.95 69.45-5.76 71.03-4.5 72.6-3.25 74.92-3.25ZM102.43 10.16L89.69 10.16 89.69 7.06 93.43 6.37 93.43-22.63 89.45-23.32 89.45-26.42 97.55-26.42 97.99-23.19Q99.31-25 101.2-25.95 103.09-26.9 105.58-26.9L105.58-26.9Q108.85-26.9 111.17-25.13 113.49-23.36 114.71-20.18 115.93-16.99 115.93-12.72L115.93-12.72 115.93-12.21Q115.93-8.4 114.7-5.54 113.47-2.69 111.17-1.09 108.88 0.51 105.66 0.51L105.66 0.51Q103.22 0.51 101.37-0.31 99.53-1.12 98.23-2.73L98.23-2.73 98.23 6.37 102.43 7.06 102.43 10.16ZM104.17-3.25L104.17-3.25Q107.59-3.25 109.34-5.74 111.1-8.23 111.1-12.21L111.1-12.21 111.1-12.72Q111.1-15.75 110.32-18.05 109.54-20.36 107.99-21.68 106.44-23 104.12-23L104.12-23Q102.07-23 100.6-22.07 99.14-21.14 98.23-19.53L98.23-19.53 98.23-6.67Q99.14-5.03 100.59-4.14 102.04-3.25 104.17-3.25ZM132.24 0L119.47 0 119.47-3.08 123.45-3.76 123.45-22.63 119.47-23.32 119.47-26.42 128.26-26.42 128.26-3.76 132.24-3.08 132.24 0ZM128.26-32.93L123.21-32.93 123.21-38.09 128.26-38.09 128.26-32.93ZM148.33 0L135.56 0 135.56-3.08 139.54-3.76 139.54-22.63 135.56-23.32 135.56-26.42 143.84-26.42 144.18-22.49Q145.5-24.58 147.49-25.74 149.47-26.9 152.01-26.9L152.01-26.9Q156.29-26.9 158.63-24.4 160.97-21.9 160.97-16.67L160.97-16.67 160.97-3.76 164.95-3.08 164.95 0 152.18 0 152.18-3.08 156.16-3.76 156.16-16.58Q156.16-20.07 154.78-21.53 153.41-23 150.57-23L150.57-23Q148.5-23 146.9-22 145.3-21 144.35-19.26L144.35-19.26 144.35-3.76 148.33-3.08 148.33 0ZM179.7 10.67L179.7 10.67Q177.79 10.67 175.57 10.14 173.35 9.62 171.66 8.72L171.66 8.72 172.91 4.98Q174.25 5.69 176.08 6.15 177.91 6.62 179.65 6.62L179.65 6.62Q182.87 6.62 184.37 4.81 185.87 3 185.87-0.34L185.87-0.34 185.87-2.86Q184.58-1.2 182.77-0.34 180.97 0.51 178.62 0.51L178.62 0.51Q175.4 0.51 173.06-1.09 170.71-2.69 169.46-5.55 168.2-8.42 168.2-12.21L168.2-12.21 168.2-12.72Q168.2-16.97 169.46-20.17 170.71-23.36 173.06-25.13 175.4-26.9 178.67-26.9L178.67-26.9Q181.16-26.9 183.04-25.93 184.92-24.95 186.19-23.1L186.19-23.1 186.63-26.42 190.68-26.42 190.68-0.34Q190.68 3.08 189.4 5.54 188.12 8.01 185.67 9.34 183.21 10.67 179.7 10.67ZM179.82-3.39L179.82-3.39Q181.99-3.39 183.46-4.38 184.92-5.37 185.87-7.18L185.87-7.18 185.87-19.34Q184.95-21.02 183.46-22.01 181.97-23 179.87-23L179.87-23Q177.57-23 176.05-21.68 174.52-20.36 173.76-18.05 173.01-15.75 173.01-12.72L173.01-12.72 173.01-12.21Q173.01-8.23 174.69-5.81 176.38-3.39 179.82-3.39ZM193.95-23.34L189.95-22.49 188.07-26.42 193.95-26.42 193.95-23.34ZM221.71 0L208.94 0 208.94-3.08 212.92-3.76 212.92-31.76 208.94-32.45 208.94-35.55 235.67-35.55 235.67-27 231.82-27 231.28-31.81 217.73-31.81 217.73-19.51 230.74-19.51 230.74-15.72 217.73-15.72 217.73-3.76 221.71-3.08 221.71 0ZM251.52 0L238.75 0 238.75-3.08 242.73-3.76 242.73-22.63 238.75-23.32 238.75-26.42 247.02-26.42 247.44-23.05 247.49-22.58Q248.61-24.61 250.26-25.76 251.91-26.9 254.03-26.9L254.03-26.9Q254.79-26.9 255.58-26.77 256.37-26.64 256.72-26.51L256.72-26.51 256.08-22.05 252.74-22.24Q250.83-22.36 249.54-21.37 248.24-20.39 247.54-18.73L247.54-18.73 247.54-3.76 251.52-3.08 251.52 0ZM271.09 0.51L271.09 0.51Q267.43 0.51 264.78-1.21 262.13-2.93 260.69-5.97 259.25-9.01 259.25-12.92L259.25-12.92 259.25-13.45Q259.25-17.36 260.69-20.4 262.13-23.44 264.78-25.17 267.43-26.9 271.04-26.9L271.04-26.9Q274.71-26.9 277.36-25.17 280-23.44 281.44-20.41 282.89-17.38 282.89-13.45L282.89-13.45 282.89-12.92Q282.89-8.98 281.44-5.94 280-2.91 277.37-1.2 274.73 0.51 271.09 0.51ZM271.09-3.25L271.09-3.25Q273.39-3.25 274.94-4.5 276.49-5.76 277.28-7.95 278.08-10.13 278.08-12.92L278.08-12.92 278.08-13.45Q278.08-16.24 277.28-18.42 276.49-20.61 274.93-21.86 273.36-23.12 271.04-23.12L271.04-23.12Q268.75-23.12 267.19-21.86 265.62-20.61 264.84-18.42 264.06-16.24 264.06-13.45L264.06-13.45 264.06-12.92Q264.06-10.13 264.84-7.95 265.62-5.76 267.2-4.5 268.77-3.25 271.09-3.25ZM299.36 0L286.59 0 286.59-3.08 290.57-3.76 290.57-22.63 286.59-23.32 286.59-26.42 294.89-26.42 295.21-22.97Q296.48-24.85 298.48-25.88 300.49-26.9 303.12-26.9L303.12-26.9Q305.76-26.9 307.65-25.68 309.54-24.46 310.49-22.02L310.49-22.02Q311.74-24.27 313.79-25.59 315.84-26.9 318.58-26.9L318.58-26.9Q322.63-26.9 324.97-24.13 327.32-21.36 327.32-15.8L327.32-15.8 327.32-3.76 331.3-3.08 331.3 0 318.5 0 318.5-3.08 322.48-3.76 322.48-15.84Q322.48-19.75 321.14-21.37 319.8-23 317.16-23L317.16-23Q314.65-23 313.12-21.23 311.59-19.46 311.35-16.77L311.35-16.77 311.35-3.76 315.33-3.08 315.33 0 302.56 0 302.56-3.08 306.54-3.76 306.54-15.84Q306.54-19.56 305.16-21.28 303.78-23 301.17-23L301.17-23Q298.97-23 297.56-22.09 296.14-21.19 295.38-19.56L295.38-19.56 295.38-3.76 299.36-3.08 299.36 0ZM357.36 0L347.18 0 347.18-3.08 349.82-3.44 362.25-35.55 366.37-35.55 378.58-3.44 381.19-3.08 381.19 0 370.99 0 370.99-3.08 373.67-3.54 371.33-10.08 357.1-10.08 354.68-3.54 357.36-3.08 357.36 0ZM363.91-28.56L358.59-14.11 369.86-14.11 364.64-28.56 364.35-29.37 364.2-29.37 363.91-28.56ZM397.47 0L384.71 0 384.71-3.08 388.69-3.76 388.69-22.63 384.71-23.32 384.71-26.42 392.98-26.42 393.32-22.49Q394.64-24.58 396.63-25.74 398.62-26.9 401.16-26.9L401.16-26.9Q405.43-26.9 407.78-24.4 410.12-21.9 410.12-16.67L410.12-16.67 410.12-3.76 414.1-3.08 414.1 0 401.33 0 401.33-3.08 405.31-3.76 405.31-16.58Q405.31-20.07 403.93-21.53 402.55-23 399.72-23L399.72-23Q397.65-23 396.05-22 394.45-21 393.5-19.26L393.5-19.26 393.5-3.76 397.47-3.08 397.47 0ZM421.03 10.67L421.03 10.67Q420.47 10.67 419.57 10.53 418.66 10.4 418.18 10.28L418.18 10.28 418.66 6.49Q419.08 6.54 419.81 6.58 420.54 6.62 420.81 6.62L420.81 6.62Q422.35 6.62 423.31 5.44 424.28 4.27 425.11 2.25L425.11 2.25 426.26-0.54 416.91-22.92 414.07-23.32 414.07-26.42 425.16-26.42 425.16-23.32 421.96-22.83 427.11-9.62 428.36-6.18 428.5-6.18 434.61-22.83 431.24-23.32 431.24-26.42 442.1-26.42 442.1-23.32 439.37-22.92 428.97 4.05Q428.23 5.96 427.2 7.46 426.16 8.96 424.66 9.81 423.16 10.67 421.03 10.67ZM472.37 0L468.07 0 459.77-32.08 456.77-32.45 456.77-35.55 468.29-35.55 468.29-32.45 464.61-31.88 469.24-12.33 470.32-7.76 470.47-7.74 471.88-12.3 479.03-35.55 483.26-35.55 490.48-12.3 491.88-7.47 492.02-7.47 493.29-12.3 497.88-31.88 493.9-32.45 493.9-35.55 505.23-35.55 505.23-32.45 502.42-32.08 494.46 0 489.9 0 482.18-24.61 481.21-28.2 481.06-28.2 480.11-24.61 472.37 0ZM520.95 0L508.18 0 508.18-3.08 512.16-3.76 512.16-34.3 508.18-34.99 508.18-38.09 516.97-38.09 516.97-22.9Q518.34-24.8 520.32-25.85 522.29-26.9 524.71-26.9L524.71-26.9Q528.96-26.9 531.3-24.37 533.65-21.83 533.65-16.55L533.65-16.55 533.65-3.76 537.63-3.08 537.63 0 524.86 0 524.86-3.08 528.84-3.76 528.84-16.6Q528.84-19.87 527.43-21.44 526.03-23 523.25-23L523.25-23Q521.27-23 519.64-22.06 518.02-21.12 516.97-19.51L516.97-19.51 516.97-3.76 520.95-3.08 520.95 0ZM552.56 0.51L552.56 0.51Q548.9 0.51 546.19-1.16 543.48-2.83 542.01-5.81 540.53-8.79 540.53-12.7L540.53-12.7 540.53-13.77Q540.53-17.53 542.08-20.5 543.63-23.46 546.2-25.18 548.78-26.9 551.83-26.9L551.83-26.9Q555.4-26.9 557.8-25.44 560.21-23.97 561.43-21.33 562.65-18.68 562.65-15.09L562.65-15.09 562.65-12.08 545.51-12.08 545.44-11.96Q545.48-9.42 546.33-7.46 547.17-5.49 548.76-4.37 550.34-3.25 552.56-3.25L552.56-3.25Q555.01-3.25 556.85-3.94 558.69-4.64 560.04-5.86L560.04-5.86 561.92-2.73Q560.5-1.37 558.17-0.43 555.84 0.51 552.56 0.51ZM545.61-15.97L545.66-15.84 557.84-15.84 557.84-16.48Q557.84-18.38 557.17-19.89 556.5-21.39 555.16-22.25 553.83-23.12 551.83-23.12L551.83-23.12Q550.22-23.12 548.9-22.18 547.58-21.24 546.73-19.63 545.88-18.02 545.61-15.97L545.61-15.97ZM579.1 0L566.33 0 566.33-3.08 570.31-3.76 570.31-22.63 566.33-23.32 566.33-26.42 574.61-26.42 575.02-23.05 575.07-22.58Q576.2-24.61 577.84-25.76 579.49-26.9 581.62-26.9L581.62-26.9Q582.37-26.9 583.17-26.77 583.96-26.64 584.3-26.51L584.3-26.51 583.67-22.05 580.32-22.24Q578.42-22.36 577.12-21.37 575.83-20.39 575.12-18.73L575.12-18.73 575.12-3.76 579.1-3.08 579.1 0ZM598.78 0.51L598.78 0.51Q595.11 0.51 592.4-1.16 589.69-2.83 588.22-5.81 586.74-8.79 586.74-12.7L586.74-12.7 586.74-13.77Q586.74-17.53 588.29-20.5 589.84-23.46 592.42-25.18 594.99-26.9 598.04-26.9L598.04-26.9Q601.61-26.9 604.01-25.44 606.42-23.97 607.64-21.33 608.86-18.68 608.86-15.09L608.86-15.09 608.86-12.08 591.72-12.08 591.65-11.96Q591.7-9.42 592.54-7.46 593.38-5.49 594.97-4.37 596.55-3.25 598.78-3.25L598.78-3.25Q601.22-3.25 603.06-3.94 604.9-4.64 606.25-5.86L606.25-5.86 608.13-2.73Q606.71-1.37 604.38-0.43 602.05 0.51 598.78 0.51ZM591.82-15.97L591.87-15.84 604.05-15.84 604.05-16.48Q604.05-18.38 603.38-19.89 602.71-21.39 601.38-22.25 600.05-23.12 598.04-23.12L598.04-23.12Q596.43-23.12 595.11-22.18 593.8-21.24 592.94-19.63 592.09-18.02 591.82-15.97L591.82-15.97Z" opacity="1" transform="matrix(1,0,0,1,0,0)" fill="#001f3f" class="slogan-text-1" data-fill-palette-color="secondary" id="text-1"></path></svg></g></svg></g></svg></g></svg></g><g><svg viewBox="0 0 156.16967152960976 138.0137853182761" height="138.0137853182761" width="156.16967152960976"><g><svg xmlns="http://www.w3.org/2000/svg" xmlns:xlink="http://www.w3.org/1999/xlink" version="1.1" x="0" y="0" viewBox="9.220000267028809 11.140000343322754 85.12999725341797 75.23300170898438" enable-background="new 0 0 100 100" xml:space="preserve" height="138.0137853182761" width="156.16967152960976" class="icon-icon-0" data-fill-palette-color="accent" id="icon-0"><g fill="#001f3f" data-fill-palette-color="accent"><g fill="#001f3f" data-fill-palette-color="accent"><path d="M70.611 34.62l-4.199-21.618h6.708l6.993 21.618H70.611zM47.05 34.62l1.389-21.618h6.446l1.327 21.618H47.05zM23.523 34.62l6.919-21.618h6.751L32.911 34.62H23.523zM22.957 65.521V39.557c0.93 1.638 3.045 2.978 5.306 2.978 2.572 0 4.634-1.735 5.849-3.668 1.213 1.933 3.308 3.668 5.881 3.668 2.572 0 4.684-1.735 5.896-3.668 1.213 1.933 3.332 3.668 5.906 3.668 2.572 0 4.696-1.735 5.91-3.668 1.212 1.933 3.337 3.668 5.908 3.668 2.574 0 4.699-1.735 5.914-3.668 1.213 1.933 3.209 3.668 5.783 3.668 2.262 0 4.373-1.34 5.303-2.978v25.964H22.957L22.957 65.521zM94.25 34.62c0.01 0 0.02-0.23-0.02-0.36-0.061-0.19-0.181-0.32-0.32-0.44l-9.73-21.9c-0.14-0.46-0.58-0.78-1.069-0.78H20.46c-0.49 0-0.92 0.33-1.07 0.8L9.8 33.74c-0.22 0.15-0.4 0.33-0.48 0.6-0.03 0.11-0.01 0.28-0.01 0.28H9.22l0.09 1.25c0.2 2.63 3.13 6.64 7.04 6.64 0.67 0 1.03-0.1 1.96 2.69l0.065 41.173c1.78 0 27.875-0.043 27.875-0.043v-9.95c0-3.25 2.63-5.88 5.87-5.88 1.62 0 3.1 0.66 4.16 1.72C57.34 73.28 58 74.76 58 76.38v9.95c0 0 24.105-0.079 27.125-0.079L85.27 45.2c0.931-2.79 1.28-2.67 1.95-2.67 3.91 0 6.82-4.03 7.021-6.66l0.109-1.25H94.25z" fill="#001f3f" data-fill-palette-color="accent"></path></g></g><rect x="29.5" y="46.5" width="13.5" height="12.75" fill="#001f3f" data-fill-palette-color="accent"></rect><rect x="45.375" y="46.5" width="13.5" height="12.75" fill="#001f3f" data-fill-palette-color="accent"></rect><rect x="61.25" y="46.5" width="13.5" height="12.75" fill="#001f3f" data-fill-palette-color="accent"></rect></svg></g></svg></g></svg></g><defs></defs></svg><rect width="395.52" height="95.59194516122118" fill="none" stroke="none" visibility="hidden"></rect></g></svg></g></svg>